Cover:
 
http://www.shotpix.com/images/43116962355499622235.png
==================================================================================
A.Haunted.House.2013.DVDRiP.XviD-SPARKS

Format                                   : AVI
Format/Info                              : Audio Video Interleave
File size                                : 700 MB
Duration                                 : 1h 26mn
Overall bit rate mode                    : Variable
Overall bit rate                         : 1135 Kbps
Writing application                      : VirtualDubMod 1.5.10.2 (build 2540/release)
Writing library                          : VirtualDubMod build 2540/release
==================================================================================
Video
ID                                       : 0
Format                                   : MPEG-4 Visual
Format profile                           : Advanced Simple@L5
Format settings, BVOP                    : 2
Format settings, QPel                    : No
Format settings, GMC                     : No warppoints
Format settings, Matrix                  : Default (H.263)
Muxing mode                              : Packed bitstream
Codec ID                                 : XVID
Codec ID/Hint                            : XviD
Duration                                 : 1h 26mn
Bit rate                                 : 990 Kbps
Width                                    : 624 pixels
Height                                   : 336 pixels
Display aspect ratio                     : 1.85:1
Frame rate                               : 23.976 fps
Color space                              : YUV
Chroma subsampling                       : 4:2:0
Bit depth                                : 8 bits
Scan type                                : Progressive
Compression mode                         : Lossy
Bits/(Pixel*Frame)                       : 0.197
Stream size                              : 612 MiB (87%)
Writing library                          : XviD 64
==================================================================================
Audio
ID                                       : 1
Format                                   : MPEG Audio
Format version                           : Version 1
Format profile                           : Layer 3
Mode                                     : Joint stereo
Mode extension                           : MS Stereo
Codec ID                                 : 55
Codec ID/Hint                            : MP3
Duration                                 : 1h 26mn
Bit rate mode                            : Variable
Bit rate                                 : 128 Kbps
Channel(s)                               : 2 channels
Sampling rate                            : 48.0 KHz
Compression mode                         : Lossy
Stream size                              : 81.7 MiB (12%)
Alignment                                : Aligned on interleaves
Writing library                          : LAME3.90.
Encoding settings                        : -m j -V 4 -q 2 -lowpass 17.6 --abr 128
==================================================================================

Cast: Marlon Wayans, Marlene Forte, Essence Atkins

Plot: Malcolm and Kisha move into their dream home, but soon learn a demon also resides there. When Kisha becomes possessed, Malcolm - determined to keep his sex life on track - turns to a priest, a psychic, and a team of ghost-busters for help.

IMDB: 
 
http://www.imdb.com/title/tt2243537/ 

==================================================================================

Screens:
 
http://www.shotpix.com/images/64219130437966459552.png
 
http://www.shotpix.com/images/41303494714781763089.png
 
http://www.shotpix.com/images/42967281700840891730.png
 
http://www.shotpix.com/images/35384642048971049018.png
 
http://www.shotpix.com/images/41731635750512377904.png